<?xml version="1.0" encoding="UTF-8" standalone="no"?>
<!DOCTYPE svg PUBLIC "-//W3C//DTD SVG 1.1//EN" "http://www.w3.org/Graphics/SVG/1.1/DTD/svg11.dtd">
<svg width="100%" height="100%" viewBox="0 0 308 308" version="1.1" xmlns="http://www.w3.org/2000/svg" xmlns:xlink="http://www.w3.org/1999/xlink" xml:space="preserve" xmlns:serif="http://www.serif.com/" style="fill-rule:evenodd;clip-rule:evenodd;stroke-linejoin:round;stroke-miterlimit:2;">
    <g transform="matrix(1,0,0,1,-441.982,-1683.71)">
        <g transform="matrix(1.05471,0,0,1.12155,-30.3716,-222.844)">
            <path d="M555.119,1703.82C555.119,1701.67 553.263,1699.93 550.978,1699.93L518.647,1699.93C516.362,1699.93 514.507,1701.67 514.507,1703.82L514.507,1834.23C514.507,1836.38 516.362,1838.12 518.647,1838.12L550.978,1838.12C553.263,1838.12 555.119,1836.38 555.119,1834.23L555.119,1703.82Z" style="fill:rgb(41,34,75);"/>
        </g>
        <path d="M557.145,1808.62C596.963,1818.89 626.427,1855.23 626.427,1898.43C626.427,1949.59 585.103,1991.13 534.205,1991.13C483.306,1991.13 441.982,1949.59 441.982,1898.43C441.982,1855.59 470.953,1819.5 510.258,1808.89L510.258,1840.49C510.258,1840.87 510.302,1841.24 510.385,1841.6C488.345,1850.95 472.863,1872.89 472.863,1898.43C472.863,1932.46 500.349,1960.09 534.205,1960.09C568.06,1960.09 595.546,1932.46 595.546,1898.43C595.546,1872.53 579.624,1850.33 557.092,1841.21C557.127,1840.98 557.145,1840.74 557.145,1840.49L557.145,1808.62Z" style="fill:rgb(41,34,75);"/>
        <path d="M680.615,1785.64C720.173,1796.08 749.394,1832.29 749.394,1875.32C749.394,1926.48 708.07,1968.02 657.171,1968.02C640.665,1968.02 625.166,1963.65 611.756,1956C617.862,1947.7 622.684,1938.4 625.925,1928.38C635.076,1933.84 645.762,1936.97 657.171,1936.97C691.027,1936.97 718.513,1909.35 718.513,1875.32C718.513,1849.61 702.828,1827.56 680.561,1818.31C680.597,1818.07 680.615,1817.83 680.615,1817.58L680.615,1785.64ZM568.087,1851.28C582.616,1861.85 592.076,1879.04 592.076,1898.43C592.076,1910.09 588.654,1920.96 582.765,1930.06C571.564,1914.72 564.949,1895.79 564.949,1875.32C564.949,1867 566.041,1858.94 568.087,1851.28ZM633.728,1785.64L633.728,1817.58C633.728,1817.83 633.746,1818.07 633.782,1818.3C623.963,1822.38 615.425,1828.95 608.947,1837.22C602.405,1829.16 594.601,1822.18 585.841,1816.58C597.989,1801.7 614.657,1790.67 633.728,1785.64Z" style="fill:rgb(41,34,75);"/>
        <g transform="matrix(1.05471,0,0,0.955761,93.0984,58.9918)">
            <path d="M555.119,1704.5C555.119,1701.97 553.263,1699.93 550.978,1699.93L518.647,1699.93C516.362,1699.93 514.507,1701.97 514.507,1704.5L514.507,1833.55C514.507,1836.07 516.362,1838.12 518.647,1838.12L550.978,1838.12C553.263,1838.12 555.119,1836.07 555.119,1833.55L555.119,1704.5Z" style="fill:rgb(41,34,75);"/>
        </g>
    </g>
</svg>
