<?xml version="1.0" encoding="UTF-8" standalone="no"?><!DOCTYPE svg PUBLIC "-//W3C//DTD SVG 1.1//EN" "http://www.w3.org/Graphics/SVG/1.1/DTD/svg11.dtd"><svg width="100%" height="100%" viewBox="0 0 991 987" version="1.1" xmlns="http://www.w3.org/2000/svg" xmlns:xlink="http://www.w3.org/1999/xlink" xml:space="preserve" xmlns:serif="http://www.serif.com/" style="fill-rule:evenodd;clip-rule:evenodd;stroke-linejoin:round;stroke-miterlimit:2;"><g id="v"><clipPath id="_clip1"><path d="M152.193,-0c12.297,-0 23.35,0.949 33.159,2.846c9.809,1.898 19.204,4.554 28.185,7.97c7.046,2.846 14.714,6.736 23.004,11.669c8.289,4.933 14.99,9.203 20.102,12.808l0,101.04l-7.875,0c-3.73,-4.553 -8.428,-10.009 -14.092,-16.365c-5.665,-6.357 -12.089,-12.571 -19.274,-18.643c-7.184,-6.072 -15.094,-11.242 -23.729,-15.512c-8.635,-4.269 -17.65,-6.404 -27.045,-6.404c-11.191,0 -21.45,2.42 -30.776,7.258c-9.326,4.839 -18.202,13.235 -26.63,25.189c-7.737,10.816 -14.058,25.426 -18.963,43.832c-4.905,18.405 -7.357,40.131 -7.357,65.178c-0,26.375 2.556,48.528 7.668,66.459c5.112,17.931 11.813,32.399 20.102,43.405c8.014,10.626 16.96,18.31 26.838,23.054c9.879,4.744 19.723,7.115 29.532,7.115c10.224,0 19.965,-2.324 29.221,-6.973c9.257,-4.649 17.063,-9.819 23.419,-15.512c6.908,-5.882 12.987,-11.859 18.237,-17.931c5.25,-6.072 9.81,-11.479 13.678,-16.223l7.046,-0l0,681.894l-256.643,-0l0,-766l0.908,1.156l-0.001,-0.729c-0,-67.17 13.643,-120.726 40.93,-160.668c27.287,-39.942 64.072,-59.913 110.356,-59.913Zm172.538,986.154l0,-977.9l89.322,0l68.39,209.196l68.182,-209.196l89.322,0l-0,977.9l-315.216,-0Zm368.382,-0l0,-554.099l104.243,-423.801l84.555,0l104.243,423.801l-0,554.099l-293.041,-0Zm213.253,-554.099l-135.537,-0l19.274,-86.525l96.989,-0l19.274,86.525Zm-343.513,-0l-165.172,-0l-0,-280.921l56.162,181.303l52.847,0l56.163,-181.303l-0,280.921Zm307.245,-163.373l-31.501,-139.749l-31.5,139.749l63.001,0Z"/></clipPath><g clip-path="url(#_clip1)"><rect x="0" y="0" width="986.154" height="986.154" style="fill:url(#_Linear2);"/><path d="M0,949.701l21.098,0.838l4.682,2.62l-6.329,2.624l0.319,8.967l16.354,0l-0,-72.262l-2.728,-2.303l0.164,-4.391l3.352,-0.571l0.244,-6.496l3.535,-1.277l0,-25.043l7.12,-7.12l0,-10.62l3.636,-0l-0,10.392l7.636,7.636l0,24.999l3.622,1.401l-0,5.703l3.278,-0l0,4.21l-3.19,3.396l0,73.358l18.496,0l0,-43.476l-5.339,-5.906l-0.074,-4.11l1.808,-2.92l1.235,-5.703l4.928,7.024l4.879,0l0.316,-17.9l3.67,-3.67l0,-30.6c0,0 1.682,-0.657 0.075,-1.899c-1.608,-1.242 -3.139,-1.362 -3.578,-5.037c-0.439,-3.674 0.251,-7.092 3.85,-10.527c3.598,-3.435 7.056,-6.157 7.957,-8.229c0.901,-2.072 4.109,-8.316 4.109,-8.316c0,-0 2.236,6.896 3.827,8.559c1.591,1.663 6.08,7.596 8.972,9.042c2.893,1.446 4.361,4.953 4.138,7.339c-0.222,2.387 -1.51,6.638 -2.679,8.301c-1.17,1.664 -1.536,2.794 -1.536,2.794l0,29.2l2.944,2.943l1.622,3.132l4.109,0.237l2.768,-0.293l-0.025,-9.537l-2.089,-2.088l12.87,-12.87l0,-12.705l25.228,-17.565l22.752,15.697l-0,16.114l11.673,11.673l-0,11.267l10.116,0l-0,-40.321c-0,0 1.658,-0.657 0.197,-2.192c-1.46,-1.536 -2.994,-1.435 -3.067,-4.527c-0.073,-3.092 7.224,-8.504 9.177,-11.059c1.953,-2.555 8.734,-11.338 8.734,-11.338c-0,0 8.129,11.19 10.298,12.201c2.17,1.012 6.741,6.482 7.314,9.028c0.573,2.546 -1.544,5.247 -2.422,7.562c-0.877,2.314 0,54.213 0,54.213l6.908,0l5.999,-4.409l1.291,4.747l2,3.055l-0.001,3.849l-1.017,2.546l-1.74,2.432l-2.702,1.518l0,61.857l40.726,0l0.006,1.259l-291.516,-0l0,-36.453Zm312.062,36.453l-0,-90.525l6.336,-3.154l49.733,-75.135l17.606,20.971l2.627,-25.894l4.572,0.876l1.862,22.846l5.637,21.74l4.641,17.052l6.919,0.996l0.703,18.829c0,0 24.226,17.118 28.669,18.948c4.442,1.829 3.996,4.417 3.996,4.417l-0.205,33.869l21.275,-0.454c-0,0 6.438,-4.836 14.619,-10.452c8.181,-5.617 41.452,-9.119 47.233,-9.552c5.781,-0.433 37.246,5.512 42.853,8.281c5.607,2.769 11.748,10.321 17.413,11.096c5.664,0.776 21.31,-0.472 21.31,-0.472l1.834,6.234l-3.268,0.569l-1.295,5.808l16.689,-0l-0,-71.177l-2.521,0l-0,-2.553l3.052,-0l0.195,-9.45l3.658,-1.796l0.33,-24.944l8.903,-8.904l9.016,9.015l-0,24.838l3.795,1.551l0,9.216l3.754,0l0,4.098l-3.783,0l-0,93.212l-338.158,-0Zm355.841,-0l-0,-131.042l98.421,0l9.82,21.991l0.539,29.435l3.38,-0l-0,-18.397l6.085,-6.086l10.923,0l0,-4.518l4.439,-0l0,3.045l14.161,0l-0,-4.084l5.062,0l0,3.614l15.466,0l-0,-4.505l5.157,-0l-0,5.47l13.323,-0l-0,24.363l5.208,0l0,64.161l22.703,-0l-0,-10.412c-0,0 -3.546,0.686 -6.836,-2.491c-3.291,-3.177 -3.762,-4.708 -3.762,-8.441c0,-3.733 7.08,-15.314 9.877,-17.432c2.797,-2.119 7.698,2.575 10.083,5.769c2.384,3.194 4.578,6.256 2.537,9.498c-2.042,3.241 -4.503,6.607 -4.857,9.443c-0.353,2.837 -3.207,3.207 -3.207,3.207l0,9.435l17.26,-0l0,-5.476c0,-0 -1.725,0.548 -4.709,-1.741c-2.984,-2.288 -3.69,-4.408 -3.69,-4.408l2.897,-7.976l7.93,-6.602c0,0 0.707,-0.098 5.604,2.793c4.898,2.892 5.705,8.326 5.705,8.326l1.203,5.495l-2.227,3.192l-7.098,1.047l-0,5.825l13.089,-0l0,-25.101l-2.562,-0l-0,-4.006c-0,-0 5.75,-1.541 12.878,-6.314c7.128,-4.773 20.55,-13.247 20.55,-13.247l12.535,-13.857l4.551,-8.919c-0,0 3.701,12.553 8.895,16.294c2.246,1.617 4.772,3.692 6.918,5.528l-0,24.868l-11.296,0l0,25.261l11.296,0l-0,16.995l-318.251,-0Zm299.367,-42.256l3.071,0l-0,25.261l-3.228,0l0.157,-25.261Zm-40.269,0l13.609,0l-0,25.261l-13.652,0l0.043,-25.261Zm17.874,0l-0,25.261l18.415,0l-0,-25.261l-18.415,0Z"/><path d="M498.118,848.418c-0,0 0.098,-4.939 1.004,-6.36c0.907,-1.42 3.03,-3.512 4.365,-4.753c1.335,-1.242 3.579,-1.858 3.579,-1.858l1.47,-7.214c0,0 1.783,-9.758 1.783,-11.493c0,-1.735 1.871,-13.049 1.871,-16.03c-0,-2.982 0.501,-8.406 0.501,-8.406l0.479,-10.297l1.59,-14.843l-0.609,-19.606c-0,0 -0.976,-2.456 -2.603,-3.273c-1.627,-0.816 -9.515,-5.603 -10.313,-6.565c-0.799,-0.961 -3.29,-3.155 -3.733,-4.228c-0.443,-1.073 -1.706,-5.189 -1.706,-7.713c-0,-2.524 0.313,-7.697 0.359,-8.836c0.047,-1.138 2.751,-6.952 3.425,-7.889c0.673,-0.936 4.071,-4.718 4.071,-4.718c0,0 1.963,-2.034 5.577,-2.034c3.614,0 6.616,-0.893 6.616,-0.893l2.638,-0.933c-0,-0 1.954,-2.883 2.231,-4.457c0.277,-1.575 8.025,-15.257 8.552,-16.795c0.526,-1.539 3.342,-9.316 3.342,-9.316c-0,0 2.956,-11.341 2.668,-16.831c-0.287,-5.49 -0.551,-8.187 -2.14,-10.224c-1.589,-2.038 -2.802,-1.758 -4.264,-1.712c-1.462,0.045 -3.145,0.05 -4.764,-1.196c-1.619,-1.247 -3.381,-4.15 -4.181,-5.091c-0.8,-0.941 -3.11,-4.778 -4.096,-5.672c-0.986,-0.894 -8.897,-11.466 -9.997,-12.31c-1.1,-0.843 -4.728,-3.718 -8.13,-7.703c-3.402,-3.985 -20.129,-15.434 -22.358,-16.41c-2.229,-0.976 -7.374,-4.74 -9.898,-5.549c-2.523,-0.808 -6.505,-2.69 -8.494,-2.9c-1.988,-0.211 -4.983,-0.032 -7.48,-0.346c-2.497,-0.313 -6.15,-0.565 -7.636,-0.961c-1.485,-0.395 -3.906,-1.855 -3.906,-1.855l-0.395,-4.434l-0.661,-5.054c0,0 1.588,-3.22 -0.377,-3.518c-1.965,-0.299 -6.948,-0.725 -6.948,-0.725c0,0 -1.917,-0.666 -2.214,-2.17c-0.297,-1.505 0.107,-4.911 0.107,-4.911l5.36,-5.064l3.515,-2.932l4.349,0.316c0,-0 3.638,2.853 4.699,3.845c1.06,0.991 4.631,0.905 6.269,1.456c1.637,0.552 3.506,1.01 5.074,2.666c1.569,1.656 1.545,2.208 3.962,3.275c2.416,1.068 6.209,2.134 7.478,2.087c1.269,-0.047 4.49,-1.167 7.092,0.608c2.601,1.774 4.996,3.705 6.284,4.475c1.289,0.77 7.417,3.801 8.684,4.181c1.266,0.38 6.814,2.862 8.014,3.518c1.2,0.655 7.322,2.805 9.255,3.561c1.933,0.755 9.163,2.081 9.163,2.081l7.075,-0.171l4.879,-1.738c-0,-0 3.034,-2.353 4.202,-3.574c1.169,-1.22 5.298,-9.31 5.976,-11.074c0.679,-1.764 3.199,-4.718 4.569,-6.955c1.37,-2.237 2.069,-3.568 4.496,-7.772c2.428,-4.204 4.268,-8.777 5.542,-10.952c1.274,-2.174 4.268,-7.519 4.826,-8.732c0.557,-1.213 1.847,-2.885 2.186,-6.001c0.339,-3.116 2.951,-14.463 2.951,-14.463c-0,0 0.727,-6.411 1.098,-8.516c0.37,-2.105 1.194,-6.127 1.662,-7.458c0.467,-1.331 1.498,-6.136 1.451,-8.092c-0.047,-1.955 1.031,-8.047 1.579,-9.369c0.548,-1.323 2.262,-5.547 2.262,-5.547c-0,0 2.379,-8.91 3.2,-10.763c0.821,-1.852 6.481,-12.542 7.025,-14.53c0.544,-1.988 1.335,-5.469 1.335,-5.469l2.169,-1.227c0,-0 1.167,-0.927 1.167,-2.613c-0,-1.687 -0.218,-6.441 -0.218,-6.441c0,0 -1.303,-2.85 -2.734,-4.025c-1.431,-1.174 -2.799,-2.553 -2.846,-3.814c-0.047,-1.261 0.198,-4.149 1.293,-5.042c1.094,-0.892 3.554,-2.407 5.132,-2.691c1.577,-0.284 2.288,-0.78 5.295,-1.27c3.007,-0.49 5.063,-0.928 6.862,-2.174c1.8,-1.247 4.962,-2.364 5.933,-6.144c0.972,-3.779 2.262,-5.649 3.119,-6.879c0.857,-1.23 1.024,-5.274 2.381,-5.782c1.358,-0.507 3.024,-2.311 3.024,-2.311l1.326,-3.353c0,-0 1.035,-2.235 2.219,-2.472c1.185,-0.236 2.921,2.41 2.921,2.41c-0,0 -0.395,3.603 -0.286,6.067c0.109,2.464 -0.714,9.933 -1.919,11.829c-1.205,1.896 -3.929,9.294 -5.449,12.082c-1.519,2.789 -5.472,9.262 -6.03,11.115c-0.559,1.852 -1.67,3.364 -1.906,5.076c-0.237,1.712 -1.296,6.354 -1.343,8.272c-0.047,1.918 -0.001,4.669 -0.001,4.669c0,-0 1.172,0.648 3.336,1.05c2.165,0.401 3.374,1.798 3.374,1.798c0,-0 0.317,3.257 -0.198,4.417c-0.516,1.16 -5.435,4.734 -5.435,4.734l-3.86,2.993c-0,0 -1.616,0.192 -1.664,2.609c-0.047,2.418 -1.149,6.85 -1.149,10.19c-0,3.34 -2.418,10.784 -2.697,13.363c-0.28,2.579 -4.031,11.646 -4.1,13.399c-0.069,1.752 -0.112,8.808 -0.254,11.506c-0.142,2.697 -0.69,8.926 -0.969,11.09c-0.28,2.165 -1.839,7.885 -2.363,9.529c-0.524,1.643 -2.173,5.449 -2.555,7.427c-0.382,1.978 -0.927,6.752 -1.043,8.658c-0.116,1.907 -0.025,12.196 -0.025,14.587c-0,2.392 -2.142,12.656 -2.662,15.026c-0.52,2.371 -2.424,18.347 -2.519,20.037c-0.094,1.691 -1.458,3.477 -1.458,4.755c-0,1.278 1.815,1.276 1.815,3.023c-0,1.747 -0.795,3.694 -0.795,3.694l-1.472,1.772c0,0 -0.65,1.893 -0.323,5.07c0.327,3.178 1.283,3.778 1.962,5.253c0.679,1.476 3.931,5.757 5.046,8.814c1.116,3.057 3.589,4.565 4.152,7.12c0.564,2.554 0.912,5.382 0.912,7.181c0,1.8 0.804,11.306 0.688,13.287c-0.116,1.981 -0.254,8.629 -0.121,11.602c0.133,2.974 0.288,8.679 0.241,11.348c-0.047,2.669 -0.615,7.759 -0.894,9.003c-0.28,1.245 -1.054,5.015 -2.081,7.225c-1.028,2.21 -2.939,3.294 -3.407,4.519c-0.468,1.226 -1.83,2.285 -1.83,4.06c0,1.775 -0.31,6.482 -0.201,9.201c0.109,2.719 0.953,5.521 1.9,8.999c0.947,3.478 1.309,7.894 1.309,7.894c0,-0 1.693,22.944 1.646,24.721c-0.047,1.777 2.947,8.937 3.696,11.447c0.75,2.51 1.861,5.384 1.861,5.384c-0,-0 1.973,4.261 1.905,5.944c-0.069,1.684 0.65,9.213 0.65,9.213c0,-0 0.352,11.17 0.352,13.886c0,2.716 -0.204,4.153 -0.095,6.639c0.109,2.486 0.647,8.492 0.505,10.818c-0.142,2.326 0.012,6.726 0.012,6.726c0,-0 -1.991,7.483 -3.12,8.605c-1.129,1.121 -3.358,2.704 -6.585,4.458c-3.226,1.755 -8.137,-0.343 -9.517,-0.736c-1.38,-0.393 -5.681,-4.078 -5.681,-4.078l-1.274,-3.347c0,-0 0.374,-3.11 3.289,-4.974c2.915,-1.865 6.037,-4.572 6.037,-4.572c-0,0 1.76,-2.565 2.733,-3.855c0.972,-1.29 2.692,-4.904 2.692,-4.904c-0,-0 0.727,-4.239 -0.516,-6.834c-1.243,-2.594 -2.738,-7.946 -3.251,-10.371c-0.513,-2.425 -1.336,-4.706 -2.019,-6.582c-0.684,-1.877 -2.84,-6.626 -3.443,-8.118c-0.603,-1.491 -2.135,-5.495 -2.135,-5.495l-1.735,-5.408l-1.795,-9.148l-0.283,-7.582l-1.675,-6.406c0,0 -0.808,-3.99 -0.965,-5.782c-0.157,-1.793 -0.656,-5.319 -1.092,-6.922c-0.436,-1.604 0.342,-4.306 -1.218,-5.356c-1.559,-1.05 -2.482,-1.572 -4.771,-1.124c-2.29,0.448 -4.62,1.493 -6.645,2.56c-2.025,1.067 -3.413,1.231 -3.413,1.231c0,-0 -2.302,2.284 -1.969,4.52c0.333,2.236 0.019,6.04 0.019,6.04c0,0 -1.302,1.783 -3.748,2.455c-2.446,0.672 -5.165,1.491 -5.165,1.491l-3.856,-0.098l-1.504,-0.035c-0,-0 0.085,7.135 0.085,9.851c-0,2.716 0.046,8.259 -0.444,10.036c-0.49,1.778 -1.487,3.927 -1.393,5.364c0.093,1.438 -0.326,6.493 -0.326,6.493l-0.367,7.778l-1.776,12.499l-2.695,6.544l-1.604,5.378c-0,-0 -0.32,0.556 -1.871,4.89c-1.551,4.334 -1.776,9.658 -1.918,10.884c-0.142,1.226 -0.798,4.975 -0.705,6.519c0.094,1.545 0.496,2.365 0.906,4.257c0.41,1.893 1.554,5.435 1.554,5.435c-0,0 0.829,1.967 0.249,5.627c-0.58,3.661 -1.644,2.999 -3.378,3.706c-1.734,0.707 -6.783,0.527 -7.979,0.667c-1.197,0.14 -6.232,0.371 -6.232,0.371c-0,0 -3.117,-2.194 -3.988,-3.577c-0.872,-1.384 -1.651,-3.463 -1.651,-3.463Z"/><path d="M448.277,855.741l0.31,-0.283l192.778,-36.784l0.587,7.949l-193.365,37.44l-0.567,-0.236l-2.011,101.044c7.114,1.255 127.159,2.345 127.159,2.345l54.302,10.804l-265.259,-3.535c0,0 -33.779,-88.055 -19.876,-85.022c13.904,3.033 45.879,29.664 66.115,37.141c5.326,1.967 10.777,36.273 15.894,38.021l2.539,-107.419l-106.498,13.947l-1.247,-6.446l107.956,-13.104l0.133,-3.554l21.36,-2.081l-0.31,9.773Zm242.378,-0.283l297.919,-14.09l1.939,11.46l-300.703,11.235l0.845,-8.605Z"/></g></g><defs><linearGradient id="_Linear2" x1="0" y1="0" x2="1" y2="0" gradientUnits="userSpaceOnUse" gradientTransform="matrix(6.74114e-14,-986.154,1100.91,6.03845e-14,493.077,986.154)"><stop offset="0" style="stop-color:#62428e;stop-opacity:1"/><stop offset="0.41" style="stop-color:#c874a8;stop-opacity:1"/><stop offset="0.86" style="stop-color:#c6adcb;stop-opacity:1"/><stop offset="1" style="stop-color:#b29dc6;stop-opacity:1"/></linearGradient></defs></svg>